:SAMPLES-PER-SECOND 30
:FULLY-SPECIFIED
:DEGREES
1
root  -90.5533 37.2268 -0.560375 -138.154 79.0647 -134.604
RightUpLeg  -25.9292 -0.120345 12.7352
RightLeg  24.6798 3.0983 -3.20446
RightFoot  2.50254 0.980598 -7.1416
RightToes  2.85217e-009 -3.18055e-015 8.94531e-016
Spine  -1.54851 -6.91858 2.14352
Spine1  13.6131 -9.42222 9.33066
HEad  -0.620827 6.95958 -0.595453
LeftShoulder1  0 -2.69403e-036 -1.28585e-037
LeftArm  -0.748476 24.2585 -84.4292
LeftForeArm  -42.8496 -53.1065 32.2759
LeftHand  1.20265 8.70932 0.827722
RightShoulder  -2.48481e-017 0 -8.08114e-019
RightArm  -1.31545 -56.3984 79.1783
RightForeArm  -22.8353 16.5135 -3.64834
RightHand  1.40268 -12.9465 -2.24313
LeftUpLeg  6.90217 -4.33197 14.0141
LeftLeg  46.691 -11.0861 0.0658045
LeftFoot  21.7593 3.31078 -10.2168
LeftToes  -3.29237e-010 -4.9359e-011 -7.59376e-011
2
root  -89.6786 37.333 -0.492513 -137.852 79.0782 -134.163
RightUpLeg  -24.7301 -0.833157 13.1652
RightLeg  25.6257 3.59963 -3.10175
RightFoot  0.636772 0.878595 -7.27705
RightToes  2.85217e-009 -3.18055e-015 8.94531e-016
Spine  -1.77369 -6.53374 2.80285
Spine1  14.0483 -8.82163 8.74479
HEad  0.222917 6.03602 0.0604158
LeftShoulder1  0 -2.69403e-036 -1.28585e-037
LeftArm  -1.62299 25.4651 -85.0506
LeftForeArm  -43.9014 -55.8213 34.8298
LeftHand  1.23349 8.96529 0.367071
RightShoulder  -2.48481e-017 0 -8.08114e-019
RightArm  4.27171 -54.8753 81.716
RightForeArm  -30.5526 18.2738 -7.8356
RightHand  1.43872 -12.9843 -2.78482
LeftUpLeg  3.84145 -5.25449 13.5602
LeftLeg  50.7939 -9.90275 2.11146
LeftFoot  21.1892 2.96216 -9.29092
LeftToes  -3.29237e-010 -4.9359e-011 -7.59376e-011
3
root  -88.0461 37.5849 -0.377614 -138.122 79.2108 -134.158
RightUpLeg  -21.9684 -1.6119 13.5733
RightLeg  26.4554 4.02484 -3.01257
RightFoot  -2.4445 0.675527 -7.19636
RightToes  2.85217e-009 -3.18055e-015 8.94531e-016
Spine  -2.28195 -5.72641 3.95655
Spine1  14.6571 -7.56735 7.48
HEad  1.80398 4.15816 1.05338
LeftShoulder1  0 -2.69403e-036 -1.28585e-037
LeftArm  -2.69249 27.2599 -85.9486
LeftForeArm  -46.9765 -60.6873 40.6931
LeftHand  1.29337 9.51908 -0.604368
RightShoulder  -2.48481e-017 0 -8.08114e-019
RightArm  14.0372 -52.4073 85.3902
RightForeArm  -43.7823 20.482 -16.6774
RightHand  1.56074 -13.3216 -4.0695
LeftUpLeg  -1.70985 -6.96707 12.4759
LeftLeg  56.8064 -8.96129 4.66364
LeftFoot  18.987 2.08611 -6.95133
LeftToes  -3.29237e-010 -4.9359e-011 -7.59376e-011
4
root  -86.3109 37.9509 -0.270644 -139.266 79.7276 -134.925
RightUpLeg  -18.1072 -1.46576 13.454
RightLeg  25.7707 3.84519 -3.00573
RightFoot  -4.95134 0.497647 -6.93071
RightToes  2.85217e-009 -3.18055e-015 8.94531e-016
Spine  -2.72601 -4.66485 5.00262
Spine1  14.759 -5.97343 5.85999
HEad  3.54525 2.08002 1.70731
LeftShoulder1  0 -2.69403e-036 -1.28585e-037
LeftArm  -3.16992 28.506 -86.4165
LeftForeArm  -53.0812 -65.536 49.2431
LeftHand  1.35744 10.2314 -1.82018
RightShoulder  -2.48481e-017 0 -8.08114e-019
RightArm  14.8301 -50.2368 87.1974
RightForeArm  -46.0389 23.7692 -22.9135
RightHand  1.67909 -13.6583 -5.19437
LeftUpLeg  -7.07903 -8.56841 10.8946
LeftLeg  60.1667 -9.15701 5.23267
LeftFoot  15.926 1.15166 -4.19524
LeftToes  -3.29237e-010 -4.9359e-011 -7.59376e-011
5
root  -84.7227 38.3564 -0.184644 -140.356 80.8107 -135.607
RightUpLeg  -13.8243 -0.366163 12.9095
RightLeg  23.8291 3.30888 -2.94
RightFoot  -6.51469 0.389937 -6.7077
RightToes  2.85217e-009 -3.18055e-015 8.94531e-016
Spine  -2.82534 -3.45011 5.7887
Spine1  14.2073 -4.21607 4.1243
HEad  5.25265 0.379198 1.91755
LeftShoulder1  0 -2.69403e-036 -1.28585e-037
LeftArm  -3.26238 28.9816 -86.2664
LeftForeArm  -62.9308 -69.5499 60.543
LeftHand  1.41161 10.8894 -2.70276
RightShoulder  -2.48481e-017 0 -8.08114e-019
RightArm  9.62917 -48.494 87.2933
RightForeArm  -40.751 28.7718 -26.0516
RightHand  1.69043 -13.6124 -5.47201
LeftUpLeg  -11.3442 -9.45663 9.05001
LeftLeg  59.8368 -9.71064 4.09277
LeftFoot  13.023 0.71882 -2.90461
LeftToes  -3.29237e-010 -4.9359e-011 -7.59376e-011
6
root  -83.1889 38.6903 -0.121029 -139.782 82.3576 -134.706
RightUpLeg  -9.71214 1.03155 12.2199
RightLeg  21.8175 2.94377 -2.5965
RightFoot  -7.79932 0.306585 -6.52024
RightToes  2.85217e-009 -3.18055e-015 8.94531e-016
Spine  -2.73087 -2.13322 6.6515
Spine1  13.4667 -2.33747 2.26322
HEad  6.8315 -0.824568 1.97821
LeftShoulder1  0 -2.69403e-036 -1.28585e-037
LeftArm  -3.30283 28.8521 -85.6493
LeftForeArm  -76.8979 -72.4926 75.6193
LeftHand  1.4509 11.2803 -2.86349
RightShoulder  -2.48481e-017 0 -8.08114e-019
RightArm  7.43276 -46.6546 86.8093
RightForeArm  -38.6491 33.665 -29.8652
RightHand  1.63156 -13.3409 -5.17656
LeftUpLeg  -14.9714 -9.36106 7.34244
LeftLeg  56.9526 -9.91079 3.04923
LeftFoot  10.1147 0.748999 -3.47157
LeftToes  -3.29237e-010 -4.9359e-011 -7.59376e-011
7
root  -81.6014 38.9355 -0.0803749 -135.157 84.2153 -129.887
RightUpLeg  -5.80289 1.96264 11.4906
RightLeg  20.0188 3.38862 -1.93363
RightFoot  -9.09067 0.23191 -6.48839
RightToes  2.85217e-009 -3.18055e-015 8.94531e-016
Spine  -2.77716 -0.709141 7.88331
Spine1  12.9906 -0.304826 -0.0653375
HEad  8.144 -1.74539 2.17059
LeftShoulder1  0 -2.69403e-036 -1.28585e-037
LeftArm  -3.36904 28.171 -84.7206
LeftForeArm  -93.7269 -73.8873 93.8212
LeftHand  1.47707 11.4692 -2.72819
RightShoulder  -2.48481e-017 0 -8.08114e-019
RightArm  6.29809 -44.4003 86.021
RightForeArm  -38.4245 38.3802 -33.9855
RightHand  1.60664 -13.2713 -4.9403
LeftUpLeg  -18.2242 -8.26755 5.9142
LeftLeg  52.0776 -9.44411 2.84502
LeftFoot  6.94645 0.80284 -4.35653
LeftToes  -3.29237e-010 -4.9359e-011 -7.59376e-011
